<svg width="20" height="20" viewBox="0 0 20 20" fill="none" xmlns="http://www.w3.org/2000/svg">
    <path fill-rule="evenodd" clip-rule="evenodd" d="M6 1.75C4.87283 1.75 3.79183 2.19777 2.9948 2.9948C2.19777 3.79183 1.75 4.87283 1.75 6V14C1.75 15.1272 2.19777 16.2082 2.9948 17.0052C3.79183 17.8022 4.87283 18.25 6 18.25H14C15.1272 18.25 16.2082 17.8022 17.0052 17.0052C17.8022 16.2082 18.25 15.1272 18.25 14V6C18.25 4.87283 17.8022 3.79183 17.0052 2.9948C16.2082 2.19777 15.1272 1.75 14 1.75H6ZM1.93414 1.93414C3.01247 0.855802 4.47501 0.25 6 0.25H14C15.525 0.25 16.9875 0.855802 18.0659 1.93414C19.1442 3.01247 19.75 4.47501 19.75 6V14C19.75 15.525 19.1442 16.9875 18.0659 18.0659C16.9875 19.1442 15.525 19.75 14 19.75H6C4.47501 19.75 3.01247 19.1442 1.93414 18.0659C0.855802 16.9875 0.25 15.525 0.25 14V6C0.25 4.47501 0.855802 3.01247 1.93414 1.93414Z" fill="white"/>
    <path fill-rule="evenodd" clip-rule="evenodd" d="M11.6013 8.05935H13V6H11.6013C10.7777 6.00091 9.98809 6.30076 9.40572 6.83378C8.82335 7.3668 8.49574 8.08947 8.49475 8.84328V10.1187H7V12.1781H8.5V19H10.75V12.1781H12.2658L12.7098 10.1187H10.75V8.46504C10.7517 8.35783 10.7991 8.25546 10.882 8.1797C10.9649 8.10395 11.0769 8.06077 11.194 8.05935H11.6013Z" fill="white"/>
</svg>