<svg width="522" height="136" viewBox="0 0 522 136" fill="none" xmlns="http://www.w3.org/2000/svg">
    <path d="M399.176 0.165283C342.6 0.165283 280.873 47.961 261.092 63.5C241.125 47.834 179.231 0.305113 122.824 0.305113C55.1015 0.305113 0 30.7059 0 68.0699C0 105.434 55.1015 135.835 122.824 135.835C179.4 135.835 241.311 88.039 261.092 72.5C281.059 88.166 342.77 135.695 399.176 135.695C466.899 135.695 522 105.294 522 67.9301C522 30.5661 466.899 0.165283 399.176 0.165283ZM122.824 131C63.5616 131 5.31749 100.766 5.31749 68.0699C5.31749 35.3736 63.5616 5 122.824 5C174.939 5 244.851 56.8763 258.784 68.0699C244.851 79.2635 174.939 131 122.824 131ZM399.176 131C347.061 131 277.592 79.2635 263.659 68.0699C277.584 56.8763 347.06 4.5 399.176 4.5C458.438 4.5 518.012 35.3736 518.012 68.0699C518.012 100.766 458.438 131 399.176 131Z" fill="url(#paint0_linear_41_86)"/>
    <defs>
        <linearGradient id="paint0_linear_41_86" x1="-9.5" y1="19" x2="562" y2="106.5" gradientUnits="userSpaceOnUse">
            <stop stop-color="#E57C01"/>
            <stop offset="1" stop-color="#EACA29"/>
        </linearGradient>
    </defs>
</svg>