<svg width="20" height="20" viewBox="0 0 20 20" fill="none" xmlns="http://www.w3.org/2000/svg">
    <path fill-rule="evenodd" clip-rule="evenodd" d="M6.64124 6.64124C7.53204 5.75044 8.74022 5.25 10 5.25C11.2598 5.25 12.468 5.75044 13.3588 6.64124C14.2496 7.53204 14.75 8.74022 14.75 10C14.75 11.2598 14.2496 12.468 13.3588 13.3588C12.468 14.2496 11.2598 14.75 10 14.75C8.74022 14.75 7.53204 14.2496 6.64124 13.3588C5.75044 12.468 5.25 11.2598 5.25 10C5.25 8.74022 5.75044 7.53204 6.64124 6.64124ZM10 6.75C9.13805 6.75 8.3114 7.09241 7.7019 7.7019C7.09241 8.3114 6.75 9.13805 6.75 10C6.75 10.862 7.09241 11.6886 7.7019 12.2981C8.3114 12.9076 9.13805 13.25 10 13.25C10.862 13.25 11.6886 12.9076 12.2981 12.2981C12.9076 11.6886 13.25 10.862 13.25 10C13.25 9.13805 12.9076 8.3114 12.2981 7.7019C11.6886 7.09241 10.862 6.75 10 6.75Z" fill="white"/>
    <path fill-rule="evenodd" clip-rule="evenodd" d="M6 1.75C4.87283 1.75 3.79183 2.19777 2.9948 2.9948C2.19777 3.79183 1.75 4.87283 1.75 6V14C1.75 15.1272 2.19777 16.2082 2.9948 17.0052C3.79183 17.8022 4.87283 18.25 6 18.25H14C15.1272 18.25 16.2082 17.8022 17.0052 17.0052C17.8022 16.2082 18.25 15.1272 18.25 14V6C18.25 4.87283 17.8022 3.79183 17.0052 2.9948C16.2082 2.19777 15.1272 1.75 14 1.75H6ZM1.93414 1.93414C3.01247 0.855802 4.47501 0.25 6 0.25H14C15.525 0.25 16.9875 0.855802 18.0659 1.93414C19.1442 3.01247 19.75 4.47501 19.75 6V14C19.75 15.525 19.1442 16.9875 18.0659 18.0659C16.9875 19.1442 15.525 19.75 14 19.75H6C4.47501 19.75 3.01247 19.1442 1.93414 18.0659C0.855802 16.9875 0.25 15.525 0.25 14V6C0.25 4.47501 0.855802 3.01247 1.93414 1.93414Z" fill="white"/>
    <path fill-rule="evenodd" clip-rule="evenodd" d="M16.0144 3.94405C16.3209 4.22268 16.3434 4.69701 16.0648 5.00351L16.055 5.01434C15.7763 5.32083 15.302 5.34342 14.9955 5.06478C14.689 4.78615 14.6664 4.31182 14.9451 4.00532L14.9549 3.99449C15.2335 3.688 15.7079 3.66541 16.0144 3.94405Z" fill="white"/>
</svg>