<svg width="20" height="20" viewBox="0 0 20 20" fill="none" xmlns="http://www.w3.org/2000/svg">
    <path fill-rule="evenodd" clip-rule="evenodd" d="M6 1.75C4.87283 1.75 3.79183 2.19777 2.9948 2.9948C2.19777 3.79183 1.75 4.87283 1.75 6V14C1.75 15.1272 2.19777 16.2082 2.9948 17.0052C3.79183 17.8022 4.87283 18.25 6 18.25H14C15.1272 18.25 16.2082 17.8022 17.0052 17.0052C17.8022 16.2082 18.25 15.1272 18.25 14V6C18.25 4.87283 17.8022 3.79183 17.0052 2.9948C16.2082 2.19777 15.1272 1.75 14 1.75H6ZM1.93414 1.93414C3.01247 0.855802 4.47501 0.25 6 0.25H14C15.525 0.25 16.9875 0.855802 18.0659 1.93414C19.1442 3.01247 19.75 4.47501 19.75 6V14C19.75 15.525 19.1442 16.9875 18.0659 18.0659C16.9875 19.1442 15.525 19.75 14 19.75H6C4.47501 19.75 3.01247 19.1442 1.93414 18.0659C0.855802 16.9875 0.25 15.525 0.25 14V6C0.25 4.47501 0.855802 3.01247 1.93414 1.93414Z" fill="white"/>
    <path d="M15 10.5181V14H13.0713V10.7507C13.0713 9.93512 12.7923 9.37851 12.0939 9.37851C11.5611 9.37851 11.2434 9.75335 11.1039 10.1169C11.0535 10.2469 11.04 10.4277 11.04 10.6085V14H9.1104C9.1104 14 9.1365 8.49791 9.1104 7.92811H11.04V8.78799L11.0274 8.80777H11.04V8.78799C11.2965 8.37359 11.7537 7.78495 12.7788 7.78495C14.0478 7.78495 15 8.65331 15 10.5181ZM7.0917 5C6.432 5 6 5.45396 6 6.04918C6 6.63311 6.4194 7.09931 7.0665 7.09931H7.0791C7.7523 7.09931 8.1708 6.63217 8.1708 6.04918C8.1582 5.45396 7.7523 5 7.0917 5ZM6.1143 14H8.0439V7.92811H6.1143V14Z" fill="white"/>
</svg>