<svg viewBox="0 0 59 64" fill="none" xmlns="http://www.w3.org/2000/svg">
    <g clip-path="url(#clip0_43_113)">
        <mask id="mask0_43_113" style="mask-type:luminance" maskUnits="userSpaceOnUse" x="0" y="0" width="59"
              height="64">
            <path d="M58.9894 0H0V64H58.9894V0Z" fill="white"/>
        </mask>
        <g mask="url(#mask0_43_113)">
            <path d="M0 49.372V39.7234L25.055 54.2538V63.906L0 49.372ZM33.8307 39.5108L8.3505 24.7401V10.0215L4.33604 12.4188L0 15.0078V29.6184L25.055 44.1522L33.8307 49.2431V64.0104L37.7864 61.648L42.1848 59.0137V44.3578L33.8307 39.5108ZM16.943 4.87831V19.7223L50.8291 39.375V53.8391L54.6327 51.5708L58.9894 48.9678V34.5419L50.8291 29.8065L33.9345 20.0081L25.1345 14.9032V0L20.8365 2.5646L16.943 4.87831ZM33.9345 0.226494L58.9894 14.7603V24.6982L33.9345 10.1643V0.226494Z"
                  fill="#D9D9D9"/>
        </g>
    </g>
    <defs>
        <clipPath id="clip0_43_113">
            <rect width="59" height="64" fill="white"/>
        </clipPath>
    </defs>
</svg>